PathFileType	4	(X/Y/Z)	C:\Users\ebm\Documents\Erivelton\Erivelton\propulsion3.trc
DataRate	CameraRate	NumFrames	NumMarkers	Units	OrigDataRate	OrigDataStartFrame	OrigNumFrames
150.00	150.00	       21	28	mm	150.00	125	       997
Frame#	Time	IJ			PX			C7			T8			RAC			RAS			RPS			RAI			RPI			RLE			RME			RRS			RUS			R3M			R5M			LAC			LAS			LPS			LAI			LPI			LLE			LME			LRS			LUS			L3M			L5M			RW			LW			V_mid_elbow_r			V_mid_elbow_l			V_mid_wrist_r			V_mid_wrist_l			V_mid_trunk_low			V_mid_trunk_upp			
		X1	Y1	Z1	X2	Y2	Z2	X3	Y3	Z3	X4	Y4	Z4	X5	Y5	Z5	X6	Y6	Z6	X7	Y7	Z7	X8	Y8	Z8	X9	Y9	Z9	X10	Y10	Z10	X11	Y11	Z11	X12	Y12	Z12	X13	Y13	Z13	X14	Y14	Z14	X15	Y15	Z15	X16	Y16	Z16	X17	Y17	Z17	X18	Y18	Z18	X19	Y19	Z19	X20	Y20	Z20	X21	Y21	Z21	X22	Y22	Z22	X23	Y23	Z23	X24	Y24	Z24	X25	Y25	Z25	X26	Y26	Z26	X27	Y27	Z27	X28	Y28	Z28	

125	0.827																-1737.62878	855.41779	157.32742																																																																			
126	0.833																-1728.43005	856.21313	156.46910	-1762.25391	862.78973	197.05211	-1720.15967	777.42603	175.46284										-1599.94849	475.41483	219.28584																																																	
127	0.840													-1769.45898	1030.13501	130.50517	-1719.53442	856.90106	155.78864	-1753.22205	863.24323	196.68469	-1710.63062	778.13507	174.40213										-1589.98108	475.85278	220.68039																																																	
128	0.847													-1761.40259	1030.48560	130.39902	-1710.97986	857.70447	155.24738	-1744.48315	863.17902	196.69055	-1701.48657	778.76361	173.48386										-1579.95581	476.64023	221.92593																																																	
129	0.853													-1753.67969	1030.94751	130.34209	-1702.59021	858.39020	154.91434	-1736.08813	864.15289	196.07117	-1692.82495	779.57990	173.13737										-1570.02917	477.76593	223.11154																																																	
130	0.860													-1745.99219	1031.40967	130.27477	-1694.45972	858.97681	154.77472	-1727.97034	864.10596	196.26843	-1684.44263	780.28516	173.05504										-1560.25525	479.39340	224.51556																																																	
131	0.867													-1738.27441	1031.89185	130.12892	-1686.50500	859.71503	154.93127	-1720.01294	864.98639	196.46353	-1676.18604	781.05792	173.40768										-1550.52527	481.17099	225.86093	-1588.51501	490.55420	270.48431																																														
132	0.873							-1801.13867	1117.33398	-60.46203				-1730.68787	1032.41882	130.09810	-1678.78967	860.42255	155.10471	-1712.09497	865.68402	196.68970	-1668.18787	781.88953	173.87000										-1540.87683	483.24039	227.35948	-1579.32385	492.24493	271.36893																																														
133	0.880							-1794.05444	1117.64636	-60.38108				-1723.20886	1032.97729	130.01669	-1671.22437	861.25128	155.47450	-1704.46594	866.75342	197.20088	-1660.41223	782.77460	174.82988										-1531.49915	485.64557	228.65457	-1570.18433	494.04681	272.61371																																														
134	0.887							-1787.11304	1118.03979	-60.33611				-1715.78882	1033.50903	129.92442	-1663.70459	862.00116	156.14388	-1696.91113	867.74512	197.84135	-1652.80847	783.75366	176.08183										-1522.17139	487.98288	230.08195	-1560.97717	495.79990	273.66080																																														
135	0.893							-1780.11816	1118.36646	-60.29303				-1708.48755	1034.13257	129.90314	-1656.37390	862.69476	156.76678	-1689.45227	868.66168	198.37064	-1645.33960	784.60364	176.99718										-1513.09412	490.59146	231.53371	-1552.02075	497.81607	275.00052																																														
136	0.900							-1773.26025	1118.74109	-60.28753				-1701.26440	1034.76074	129.78940	-1649.15979	863.54724	157.39760	-1682.24878	869.89636	198.94586	-1638.12134	785.53363	178.53204										-1504.27844	493.42838	233.20905	-1543.25537	500.01358	276.27530																																														
137	0.907							-1766.44812	1119.03699	-60.27052				-1694.11353	1035.39063	129.75716	-1642.05798	864.19678	158.19159	-1675.13428	871.04315	199.76959	-1631.12732	786.45404	179.72226										-1495.60425	496.17267	234.53008	-1534.63147	502.36069	278.01709																																														
138	0.913							-1759.64624	1119.38037	-60.24858				-1687.08972	1035.97314	129.71014	-1635.24695	865.03033	159.18271	-1668.11719	872.18005	200.82510	-1624.36255	787.42780	181.21213										-1487.22473	499.12524	236.18111	-1526.04993	504.64691	279.45566																																														
139	0.920							-1752.87097	1119.66785	-60.22411				-1680.08276	1036.61938	129.63484	-1628.57849	865.90491	160.11659	-1661.26147	873.28436	201.68938	-1617.73755	788.25446	182.62086										-1479.01990	502.14761	237.77002	-1517.70874	507.14398	281.10342																																														
140	0.927							-1746.15820	1119.94983	-60.23659				-1673.18433	1037.27234	129.59273	-1621.92688	866.58667	160.97476	-1654.57214	874.60742	202.51680	-1611.23389	789.15344	184.18471										-1470.99707	505.11679	239.27402	-1509.55920	509.76215	283.01837																																														
141	0.933							-1739.46545	1120.17407	-60.23256				-1666.29419	1037.93127	129.53302	-1615.55237	867.39185	161.92152	-1648.11023	876.01434	203.56429	-1605.31482	790.24890	185.93584										-1463.28040	508.51096	241.20357	-1501.55310	512.65839	284.82837																																														
142	0.940							-1732.82227	1120.38989	-60.25155				-1659.54956	1038.67371	129.41168	-1609.26538	868.15131	162.85109	-1641.77380	877.32275	204.44804	-1599.41809	791.21149	187.56271										-1455.74243	511.72327	242.81044	-1493.62817	515.83850	287.04187																																														
143	0.947							-1726.25659	1120.54395	-60.31412				-1652.86719	1039.43555	129.33949	-1603.16858	868.90924	163.73289	-1635.57788	878.63916	205.31828	-1593.77490	792.20831	189.49881										-1448.58533	515.37726	244.77596	-1486.06335	518.92871	288.57880																																														
144	0.953							-1719.68469	1120.65503	-60.40034				-1646.16956	1040.13379	129.21349	-1597.31909	869.77441	164.99164	-1629.58972	880.36353	206.65865	-1588.22583	793.10590	191.30547	-1618.59485	807.50092	229.53181							-1441.61670	518.87927	246.75592	-1478.78748	522.23633	289.87396																																														
145	0.960							-1713.18640	1120.76489	-60.49183				-1639.64758	1040.88770	129.14055	-1591.51855	870.60205	166.21095	-1623.85339	881.96075	206.58461	-1582.94519	794.17334	193.28311	-1612.97229	808.61182	231.95647							-1434.90369	522.52283	248.85216	-1471.71899	525.62073	292.64914																																		-1437.02087	449.02798	-421.18362										
